<?xml version="1.0" encoding="utf-8"?>
<!-- Generator: Adobe Illustrator 25.3.1, SVG Export Plug-In . SVG Version: 6.00 Build 0)  -->
<svg version="1.1" id="Capa_1" xmlns="http://www.w3.org/2000/svg" xmlns:xlink="http://www.w3.org/1999/xlink" x="0px" y="0px"
	 viewBox="0 0 59 59" style="enable-background:new 0 0 59 59;" xml:space="preserve">
<style type="text/css">
	.st0{fill:#FFFFFF;}
</style>
<g>
	<path class="st0" d="M20.2,28.3c-0.4-0.4-1-0.4-1.4,0s-0.4,1,0,1.4l10,10c0.2,0.2,0.4,0.3,0.7,0.3c0,0,0,0,0,0s0,0,0,0
		c0.3,0,0.6-0.2,0.8-0.4l9.9-9.9c0.4-0.4,0.4-1,0-1.4s-1-0.4-1.4,0l-8.3,8.3V1c0-0.6-0.4-1-1-1s-1,0.4-1,1v35.6L20.2,28.3z"/>
	<path class="st0" d="M36.5,16c-0.6,0-1,0.4-1,1s0.4,1,1,1h13v39h-40V18h13c0.6,0,1-0.4,1-1s-0.4-1-1-1h-15v43h44V16H36.5z"/>
</g>
</svg>
